<svg xmlns="http://www.w3.org/2000/svg" width="2400" height="1600" viewBox="0 0 2400 1600" role="img" aria-label="Aurora waves">
  <defs>
    <linearGradient id="sky" x1="0" y1="0" x2="1" y2="1">
      <stop offset="0" stop-color="#14213d"/>
      <stop offset="0.45" stop-color="#1b4965"/>
      <stop offset="1" stop-color="#f4d35e"/>
    </linearGradient>
    <radialGradient id="glow" cx="68%" cy="30%" r="54%">
      <stop offset="0" stop-color="#f7fff7" stop-opacity="0.78"/>
      <stop offset="0.28" stop-color="#70e000" stop-opacity="0.42"/>
      <stop offset="0.72" stop-color="#5390d9" stop-opacity="0"/>
    </radialGradient>
    <linearGradient id="wave" x1="0" y1="0" x2="1" y2="0">
      <stop offset="0" stop-color="#56cfe1" stop-opacity="0"/>
      <stop offset="0.3" stop-color="#80ffdb" stop-opacity="0.52"/>
      <stop offset="0.68" stop-color="#b8f2e6" stop-opacity="0.36"/>
      <stop offset="1" stop-color="#56cfe1" stop-opacity="0"/>
    </linearGradient>
  </defs>
  <rect width="2400" height="1600" fill="url(#sky)"/>
  <rect width="2400" height="1600" fill="url(#glow)"/>
  <path d="M0 510 C330 350 540 560 850 420 C1160 280 1390 460 1690 330 C1960 214 2170 270 2400 190 L2400 620 C2090 520 1830 610 1550 540 C1250 465 940 700 650 610 C390 530 210 610 0 575 Z" fill="url(#wave)"/>
  <path d="M0 790 C310 700 570 820 870 700 C1200 570 1420 790 1750 650 C2000 545 2190 585 2400 500 L2400 880 C2030 825 1795 900 1510 835 C1200 765 975 940 660 880 C400 830 190 890 0 850 Z" fill="#ffffff" opacity="0.12"/>
  <circle cx="1780" cy="340" r="280" fill="#ffffff" opacity="0.09"/>
</svg>
