<svg xmlns="http://www.w3.org/2000/svg" width="2400" height="1600" viewBox="0 0 2400 1600" role="img" aria-label="Layered forest">
  <defs>
    <linearGradient id="mist" x1="0" y1="0" x2="0" y2="1">
      <stop offset="0" stop-color="#dbe7e4"/>
      <stop offset="0.5" stop-color="#7aa095"/>
      <stop offset="1" stop-color="#172a26"/>
    </linearGradient>
    <linearGradient id="fade" x1="0" y1="0" x2="0" y2="1">
      <stop offset="0" stop-color="#ffffff" stop-opacity="0.54"/>
      <stop offset="1" stop-color="#ffffff" stop-opacity="0"/>
    </linearGradient>
  </defs>
  <rect width="2400" height="1600" fill="url(#mist)"/>
  <rect width="2400" height="760" fill="url(#fade)"/>
  <g opacity="0.34" fill="#2f4f4a">
    <path d="M0 900 L180 620 L360 900 Z"/>
    <path d="M260 900 L470 575 L680 900 Z"/>
    <path d="M600 900 L850 540 L1100 900 Z"/>
    <path d="M1030 900 L1250 610 L1470 900 Z"/>
    <path d="M1390 900 L1660 520 L1930 900 Z"/>
    <path d="M1850 900 L2125 590 L2400 900 Z"/>
  </g>
  <g opacity="0.58" fill="#203b36">
    <path d="M0 1140 L160 770 L320 1140 Z"/>
    <path d="M210 1140 L420 700 L630 1140 Z"/>
    <path d="M520 1140 L760 715 L1000 1140 Z"/>
    <path d="M930 1140 L1180 735 L1430 1140 Z"/>
    <path d="M1340 1140 L1580 690 L1820 1140 Z"/>
    <path d="M1740 1140 L2050 710 L2360 1140 Z"/>
  </g>
  <g fill="#10221f">
    <path d="M0 1600 L0 1240 L160 840 L320 1240 L320 1600 Z"/>
    <path d="M250 1600 L250 1220 L470 760 L690 1220 L690 1600 Z"/>
    <path d="M620 1600 L620 1190 L870 790 L1120 1190 L1120 1600 Z"/>
    <path d="M1080 1600 L1080 1250 L1320 830 L1560 1250 L1560 1600 Z"/>
    <path d="M1510 1600 L1510 1200 L1780 760 L2050 1200 L2050 1600 Z"/>
    <path d="M1960 1600 L1960 1250 L2190 840 L2400 1210 L2400 1600 Z"/>
  </g>
</svg>
